<svg width="70" height="64" viewBox="0 0 70 64" fill="none" xmlns="http://www.w3.org/2000/svg">
<ellipse cx="35" cy="33" rx="34" ry="30" fill="white"/>
<path d="M35 2.5C53.9932 2.5 69.5 16.0983 69.5 33C69.5 49.9017 53.9932 63.5 35 63.5C16.0068 63.5 0.5 49.9017 0.5 33C0.5 16.0983 16.0068 2.5 35 2.5Z" stroke="black" stroke-opacity="0.4"/>
<path d="M41 62.5332C39.0523 62.8392 37.0474 63 35 63C33.3013 63 31.6319 62.888 30 62.6758V54.1768H41V62.5332Z" fill="#001B5E"/>
<path d="M9 49V52.3291C6.71993 49.9438 4.85455 47.2409 3.5 44.3057V41L9 49Z" fill="#001B5E"/>
<path d="M61.9995 47.9998C62.4995 46.9998 66.9988 39.5013 66.9995 40.4998V43.158C65.8046 46.0881 64.1072 48.8058 61.9995 51.2322C61.9995 50.9728 61.9995 50.5806 61.9995 49.9998C61.9995 47.5001 61.4995 48.9997 61.9995 47.9998Z" fill="#001B5E"/>
<g filter="url(#filter0_d_6_645)">
<ellipse cx="35" cy="30" rx="34" ry="30" fill="white"/>
<path d="M35.332 32.396C35.332 33.1053 35.108 33.7027 34.66 34.188C34.212 34.6733 33.5913 34.9813 32.798 35.112V37.17H31.678V35.154C30.53 35.098 29.5733 34.6967 28.808 33.95L29.564 33.124C30.236 33.7773 31.0387 34.104 31.972 34.104C32.56 34.104 33.0407 33.9593 33.414 33.67C33.7967 33.3807 33.988 32.97 33.988 32.438C33.988 32.13 33.9273 31.8733 33.806 31.668C33.694 31.4627 33.4933 31.2807 33.204 31.122C32.9147 30.9633 32.4993 30.8 31.958 30.632C30.9967 30.3333 30.292 29.9833 29.844 29.582C29.4053 29.1713 29.186 28.6207 29.186 27.93C29.186 27.2767 29.4147 26.7307 29.872 26.292C30.3293 25.8533 30.9313 25.592 31.678 25.508V23.464H32.798V25.522C33.246 25.5687 33.6473 25.6807 34.002 25.858C34.366 26.026 34.7113 26.264 35.038 26.572L34.296 27.384C33.9787 27.0853 33.6473 26.8707 33.302 26.74C32.966 26.6093 32.5973 26.544 32.196 26.544C31.7013 26.544 31.2953 26.6607 30.978 26.894C30.67 27.118 30.516 27.4447 30.516 27.874C30.516 28.1447 30.572 28.3733 30.684 28.56C30.796 28.7373 30.9967 28.9053 31.286 29.064C31.5753 29.2133 32 29.3767 32.56 29.554C33.148 29.7313 33.638 29.9273 34.03 30.142C34.422 30.3567 34.7347 30.646 34.968 31.01C35.2107 31.374 35.332 31.836 35.332 32.396ZM40.0074 25.634V35H38.7194V27.006L36.5354 28.336L35.9754 27.426L38.8734 25.634H40.0074Z" fill="black"/>
<path d="M41 59.5332C39.0523 59.8392 37.0474 60 35 60C33.3013 60 31.6319 59.888 30 59.6758V51.1768H41V59.5332ZM17.4922 44.7812L8.85645 49.1797C6.62952 46.819 4.80648 44.1519 3.47852 41.2607L12.2617 36.7871L17.4922 44.7812ZM66.9033 40.3896C65.6771 43.3202 63.9477 46.035 61.8066 48.4531L53.0312 43.9824L58.2617 35.9883L66.9033 40.3896ZM37.377 46.7188C37.8107 46.6718 38.2004 46.9814 38.2559 47.4121C37.1962 47.5652 36.1088 47.6465 35 47.6465L34.4834 47.6406C33.5527 47.6198 32.6381 47.5414 31.7432 47.4121C31.7986 46.9813 32.1892 46.6718 32.623 46.7188C33.4016 46.8031 34.1949 46.8467 35 46.8467C35.8051 46.8467 36.5984 46.8031 37.377 46.7188ZM22.6309 43.8672C22.8566 43.5289 23.2981 43.4168 23.6553 43.5967L23.7266 43.6367L24.2217 43.9424C25.2245 44.5406 26.2961 45.0578 27.4238 45.4834L27.9922 45.6885L28.0684 45.7188C28.4315 45.8867 28.6171 46.3031 28.4922 46.6904C26.3508 46.0405 24.3738 45.0792 22.6309 43.8672ZM46.3447 43.5967C46.7018 43.4169 47.1424 43.5293 47.3682 43.8672C45.6251 45.0791 43.6483 46.0406 41.5068 46.6904C41.3737 46.2771 41.5954 45.8306 42.0078 45.6885L42.5762 45.4834C43.8917 44.9869 45.1306 44.3656 46.2734 43.6367L46.3447 43.5967ZM16.3613 36.4092C16.7277 36.237 17.1621 36.3668 17.376 36.7031L17.416 36.7744L17.6875 37.291C18.342 38.4846 19.1535 39.6027 20.0996 40.623C20.3956 40.9424 20.38 41.4375 20.0693 41.7393C18.4982 40.1846 17.234 38.3835 16.3613 36.4092ZM52.584 36.7744C52.7789 36.3862 53.2467 36.2259 53.6377 36.4092C52.7649 38.3835 51.501 40.1846 49.9297 41.7393C49.6195 41.4374 49.6046 40.9422 49.9004 40.623C50.9818 39.4567 51.8876 38.1631 52.584 36.7744ZM15.3379 26.7559C15.7628 26.8343 16.05 27.2377 15.9824 27.667C15.8621 28.4289 15.7998 29.2083 15.7998 30C15.7998 30.7915 15.8622 31.5703 15.9824 32.332C16.0502 32.7614 15.7628 33.1636 15.3379 33.2422C15.1471 32.3357 15.0341 31.4046 15.0068 30.4551L15 30C15 28.892 15.1165 27.8072 15.3379 26.7559ZM54.6611 26.7559C54.8826 27.8073 55 28.892 55 30L54.9932 30.4551C54.9659 31.4047 54.852 32.3356 54.6611 33.2422C54.2368 33.1632 53.9498 32.7611 54.0176 32.332C54.1378 31.5703 54.2002 30.7915 54.2002 30C54.2002 29.4061 54.165 28.8188 54.0967 28.2412L54.0176 27.667L54.0088 27.5859C53.9867 27.1883 54.2636 26.8297 54.6611 26.7559ZM16.9688 16.0176L11.7383 24.0117L3.0957 19.6094C4.32196 16.679 6.05137 13.9639 8.19238 11.5459L16.9688 16.0176ZM20.0693 18.2588C20.3806 18.5604 20.3955 19.0564 20.0996 19.376C19.0182 20.5422 18.1124 21.836 17.416 23.2246C17.221 23.6136 16.7528 23.7733 16.3613 23.5889C17.2342 21.6148 18.4982 19.8132 20.0693 18.2588ZM49.9297 18.2588C51.501 19.8133 52.7648 21.6147 53.6377 23.5889C53.2712 23.761 52.8378 23.6325 52.624 23.2959L52.584 23.2246L52.3125 22.709C51.6579 21.5152 50.8467 20.3965 49.9004 19.376C49.6047 19.0565 49.6189 18.5605 49.9297 18.2588ZM61.1426 10.8193C63.3696 13.1799 65.1924 15.8471 66.5205 18.7383L57.7383 23.2129L52.5078 15.2188L61.1426 10.8193ZM28.4922 13.3076C28.6264 13.7214 28.4051 14.1681 27.9922 14.3105L27.4238 14.5156C26.1084 15.0121 24.8694 15.6335 23.7266 16.3623L23.6553 16.4033C23.2977 16.5833 22.8563 16.4699 22.6309 16.1309C24.3738 14.919 26.351 13.9574 28.4922 13.3076ZM41.5068 13.3076C43.6481 13.9573 45.6252 14.9191 47.3682 16.1309C47.1426 16.4696 46.7021 16.5832 46.3447 16.4033L46.2734 16.3623L45.7783 16.0566C44.7755 15.4584 43.7039 14.9412 42.5762 14.5156L42.0078 14.3105L41.9316 14.2803C41.5683 14.1121 41.3813 13.6951 41.5068 13.3076ZM35 12.3525C36.1087 12.3525 37.1963 12.4329 38.2559 12.5859C38.2011 13.0175 37.8113 13.3273 37.377 13.2803C36.5984 13.1959 35.8051 13.1523 35 13.1523C34.1949 13.1523 33.4016 13.1959 32.623 13.2803C32.1887 13.3273 31.7979 13.0176 31.7432 12.5859C32.8031 12.4328 33.891 12.3525 35 12.3525ZM35 0C36.6987 0 38.3681 0.111028 40 0.323242V8.82324H29V0.46582C30.9477 0.159834 32.9527 0 35 0Z" fill="#001B5E"/>
</g>
<defs>
<filter id="filter0_d_6_645" x="1" y="0" width="68" height="63" filterUnits="userSpaceOnUse" color-interpolation-filters="sRGB">
<feFlood flood-opacity="0" result="BackgroundImageFix"/>
<feColorMatrix in="SourceAlpha" type="matrix" values="0 0 0 0 0 0 0 0 0 0 0 0 0 0 0 0 0 0 127 0" result="hardAlpha"/>
<feOffset dy="3"/>
<feComposite in2="hardAlpha" operator="out"/>
<feColorMatrix type="matrix" values="0 0 0 0 0 0 0 0 0 0 0 0 0 0 0 0 0 0 0.5 0"/>
<feBlend mode="normal" in2="BackgroundImageFix" result="effect1_dropShadow_6_645"/>
<feBlend mode="normal" in="SourceGraphic" in2="effect1_dropShadow_6_645" result="shape"/>
</filter>
</defs>
</svg>
