<svg width="70" height="64" viewBox="0 0 70 64" fill="none" xmlns="http://www.w3.org/2000/svg">
<ellipse cx="35" cy="33" rx="34" ry="30" fill="black"/>
<path d="M35 2.5C53.9932 2.5 69.5 16.0983 69.5 33C69.5 49.9017 53.9932 63.5 35 63.5C16.0068 63.5 0.5 49.9017 0.5 33C0.5 16.0983 16.0068 2.5 35 2.5Z" stroke="black" stroke-opacity="0.4"/>
<path d="M41 62.5332C39.0523 62.8392 37.0474 63 35 63C33.3013 63 31.6319 62.888 30 62.6758V54.1768H41V62.5332Z" fill="white"/>
<path d="M9 49V52.3291C6.71993 49.9438 4.85455 47.2409 3.5 44.3057V41L9 49Z" fill="white"/>
<path d="M61.9999 48.0002C62.4999 47.0002 66.9999 39.5002 66.9999 40.5002V43.1555C65.8051 46.0861 64.1078 48.804 61.9999 51.2307C61.9999 50.9713 61.9999 50.5799 61.9999 50.0002C61.9999 47.5004 61.5001 48.9998 61.9999 48.0002Z" fill="white"/>
<g filter="url(#filter0_d_6_8506)">
<ellipse cx="35" cy="30" rx="34" ry="30" fill="black"/>
<path d="M28.0254 31.396C28.0254 32.1053 27.8014 32.7027 27.3534 33.188C26.9054 33.6733 26.2847 33.9813 25.4914 34.112V36.17H24.3714V34.154C23.2234 34.098 22.2667 33.6967 21.5014 32.95L22.2574 32.124C22.9294 32.7773 23.732 33.104 24.6654 33.104C25.2534 33.104 25.734 32.9593 26.1074 32.67C26.49 32.3807 26.6814 31.97 26.6814 31.438C26.6814 31.13 26.6207 30.8733 26.4994 30.668C26.3874 30.4627 26.1867 30.2807 25.8974 30.122C25.608 29.9633 25.1927 29.8 24.6514 29.632C23.69 29.3333 22.9854 28.9833 22.5374 28.582C22.0987 28.1713 21.8794 27.6207 21.8794 26.93C21.8794 26.2767 22.108 25.7307 22.5654 25.292C23.0227 24.8533 23.6247 24.592 24.3714 24.508V22.464H25.4914V24.522C25.9394 24.5687 26.3407 24.6807 26.6954 24.858C27.0594 25.026 27.4047 25.264 27.7314 25.572L26.9894 26.384C26.672 26.0853 26.3407 25.8707 25.9954 25.74C25.6594 25.6093 25.2907 25.544 24.8894 25.544C24.3947 25.544 23.9887 25.6607 23.6714 25.894C23.3634 26.118 23.2094 26.4447 23.2094 26.874C23.2094 27.1447 23.2654 27.3733 23.3774 27.56C23.4894 27.7373 23.69 27.9053 23.9794 28.064C24.2687 28.2133 24.6934 28.3767 25.2534 28.554C25.8414 28.7313 26.3314 28.9273 26.7234 29.142C27.1154 29.3567 27.428 29.646 27.6614 30.01C27.904 30.374 28.0254 30.836 28.0254 31.396ZM32.7007 24.634V34H31.4127V26.006L29.2287 27.336L28.6687 26.426L31.5667 24.634H32.7007ZM38.1414 24.494C39.1774 24.494 39.9567 24.9093 40.4794 25.74C41.0114 26.5613 41.2774 27.756 41.2774 29.324C41.2774 30.892 41.0114 32.0913 40.4794 32.922C39.9567 33.7527 39.1774 34.168 38.1414 34.168C37.1054 34.168 36.3214 33.7527 35.7894 32.922C35.2667 32.0913 35.0054 30.892 35.0054 29.324C35.0054 27.756 35.2667 26.5613 35.7894 25.74C36.3214 24.9093 37.1054 24.494 38.1414 24.494ZM38.1414 25.516C37.5347 25.516 37.082 25.8147 36.7834 26.412C36.494 27.0093 36.3494 27.98 36.3494 29.324C36.3494 30.668 36.494 31.6433 36.7834 32.25C37.082 32.8473 37.5347 33.146 38.1414 33.146C38.7387 33.146 39.1867 32.8473 39.4854 32.25C39.784 31.6433 39.9334 30.668 39.9334 29.324C39.9334 27.9893 39.784 27.0233 39.4854 26.426C39.1867 25.8193 38.7387 25.516 38.1414 25.516ZM45.948 24.494C46.984 24.494 47.7633 24.9093 48.286 25.74C48.818 26.5613 49.084 27.756 49.084 29.324C49.084 30.892 48.818 32.0913 48.286 32.922C47.7633 33.7527 46.984 34.168 45.948 34.168C44.912 34.168 44.128 33.7527 43.596 32.922C43.0733 32.0913 42.812 30.892 42.812 29.324C42.812 27.756 43.0733 26.5613 43.596 25.74C44.128 24.9093 44.912 24.494 45.948 24.494ZM45.948 25.516C45.3413 25.516 44.8887 25.8147 44.59 26.412C44.3007 27.0093 44.156 27.98 44.156 29.324C44.156 30.668 44.3007 31.6433 44.59 32.25C44.8887 32.8473 45.3413 33.146 45.948 33.146C46.5453 33.146 46.9933 32.8473 47.292 32.25C47.5907 31.6433 47.74 30.668 47.74 29.324C47.74 27.9893 47.5907 27.0233 47.292 26.426C46.9933 25.8193 46.5453 25.516 45.948 25.516Z" fill="white"/>
<path d="M41 59.5332C39.0523 59.8392 37.0474 60 35 60C33.3013 60 31.6319 59.888 30 59.6758V51.1768H41V59.5332ZM17.4922 44.7812L8.85645 49.1797C6.62952 46.819 4.80648 44.1519 3.47852 41.2607L12.2617 36.7871L17.4922 44.7812ZM66.9033 40.3896C65.6771 43.3202 63.9477 46.035 61.8066 48.4531L53.0312 43.9824L58.2617 35.9883L66.9033 40.3896ZM37.377 46.7188C37.8107 46.6718 38.2004 46.9814 38.2559 47.4121C37.1962 47.5652 36.1088 47.6465 35 47.6465L34.4834 47.6406C33.5527 47.6198 32.6381 47.5414 31.7432 47.4121C31.7986 46.9813 32.1892 46.6718 32.623 46.7188C33.4016 46.8031 34.1949 46.8467 35 46.8467C35.8051 46.8467 36.5984 46.8031 37.377 46.7188ZM22.6309 43.8672C22.8566 43.5289 23.2981 43.4168 23.6553 43.5967L23.7266 43.6367L24.2217 43.9424C25.2245 44.5406 26.2961 45.0578 27.4238 45.4834L27.9922 45.6885L28.0684 45.7188C28.4315 45.8867 28.6171 46.3031 28.4922 46.6904C26.3508 46.0405 24.3738 45.0792 22.6309 43.8672ZM46.3447 43.5967C46.7018 43.4169 47.1424 43.5293 47.3682 43.8672C45.6251 45.0791 43.6483 46.0406 41.5068 46.6904C41.3737 46.2771 41.5954 45.8306 42.0078 45.6885L42.5762 45.4834C43.8917 44.9869 45.1306 44.3656 46.2734 43.6367L46.3447 43.5967ZM16.3613 36.4092C16.7277 36.237 17.1621 36.3668 17.376 36.7031L17.416 36.7744L17.6875 37.291C18.342 38.4846 19.1535 39.6027 20.0996 40.623C20.3956 40.9424 20.38 41.4375 20.0693 41.7393C18.4982 40.1846 17.234 38.3835 16.3613 36.4092ZM52.584 36.7744C52.7789 36.3862 53.2467 36.2259 53.6377 36.4092C52.7649 38.3835 51.501 40.1846 49.9297 41.7393C49.6195 41.4374 49.6046 40.9422 49.9004 40.623C50.9818 39.4567 51.8876 38.1631 52.584 36.7744ZM15.3379 26.7559C15.7628 26.8343 16.05 27.2377 15.9824 27.667C15.8621 28.4289 15.7998 29.2083 15.7998 30C15.7998 30.7915 15.8622 31.5703 15.9824 32.332C16.0502 32.7614 15.7628 33.1636 15.3379 33.2422C15.1471 32.3357 15.0341 31.4046 15.0068 30.4551L15 30C15 28.892 15.1165 27.8072 15.3379 26.7559ZM54.6611 26.7559C54.8826 27.8073 55 28.892 55 30L54.9932 30.4551C54.9659 31.4047 54.852 32.3356 54.6611 33.2422C54.2368 33.1632 53.9498 32.7611 54.0176 32.332C54.1378 31.5703 54.2002 30.7915 54.2002 30C54.2002 29.4061 54.165 28.8188 54.0967 28.2412L54.0176 27.667L54.0088 27.5859C53.9867 27.1883 54.2636 26.8297 54.6611 26.7559ZM16.9688 16.0176L11.7383 24.0117L3.0957 19.6094C4.32196 16.679 6.05137 13.9639 8.19238 11.5459L16.9688 16.0176ZM20.0693 18.2588C20.3806 18.5604 20.3955 19.0564 20.0996 19.376C19.0182 20.5422 18.1124 21.836 17.416 23.2246C17.221 23.6136 16.7528 23.7733 16.3613 23.5889C17.2342 21.6148 18.4982 19.8132 20.0693 18.2588ZM49.9297 18.2588C51.501 19.8133 52.7648 21.6147 53.6377 23.5889C53.2712 23.761 52.8378 23.6325 52.624 23.2959L52.584 23.2246L52.3125 22.709C51.6579 21.5152 50.8467 20.3965 49.9004 19.376C49.6047 19.0565 49.6189 18.5605 49.9297 18.2588ZM61.1426 10.8193C63.3696 13.1799 65.1924 15.8471 66.5205 18.7383L57.7383 23.2129L52.5078 15.2188L61.1426 10.8193ZM28.4922 13.3076C28.6264 13.7214 28.4051 14.1681 27.9922 14.3105L27.4238 14.5156C26.1084 15.0121 24.8694 15.6335 23.7266 16.3623L23.6553 16.4033C23.2977 16.5833 22.8563 16.4699 22.6309 16.1309C24.3738 14.919 26.351 13.9574 28.4922 13.3076ZM41.5068 13.3076C43.6481 13.9573 45.6252 14.9191 47.3682 16.1309C47.1426 16.4696 46.7021 16.5832 46.3447 16.4033L46.2734 16.3623L45.7783 16.0566C44.7755 15.4584 43.7039 14.9412 42.5762 14.5156L42.0078 14.3105L41.9316 14.2803C41.5683 14.1121 41.3813 13.6951 41.5068 13.3076ZM35 12.3525C36.1087 12.3525 37.1963 12.4329 38.2559 12.5859C38.2011 13.0175 37.8113 13.3273 37.377 13.2803C36.5984 13.1959 35.8051 13.1523 35 13.1523C34.1949 13.1523 33.4016 13.1959 32.623 13.2803C32.1887 13.3273 31.7979 13.0176 31.7432 12.5859C32.8031 12.4328 33.891 12.3525 35 12.3525ZM35 0C36.6987 0 38.3681 0.111028 40 0.323242V8.82324H29V0.46582C30.9477 0.159834 32.9527 0 35 0Z" fill="white"/>
</g>
<defs>
<filter id="filter0_d_6_8506" x="1" y="0" width="68" height="63" filterUnits="userSpaceOnUse" color-interpolation-filters="sRGB">
<feFlood flood-opacity="0" result="BackgroundImageFix"/>
<feColorMatrix in="SourceAlpha" type="matrix" values="0 0 0 0 0 0 0 0 0 0 0 0 0 0 0 0 0 0 127 0" result="hardAlpha"/>
<feOffset dy="3"/>
<feComposite in2="hardAlpha" operator="out"/>
<feColorMatrix type="matrix" values="0 0 0 0 0 0 0 0 0 0 0 0 0 0 0 0 0 0 0.5 0"/>
<feBlend mode="normal" in2="BackgroundImageFix" result="effect1_dropShadow_6_8506"/>
<feBlend mode="normal" in="SourceGraphic" in2="effect1_dropShadow_6_8506" result="shape"/>
</filter>
</defs>
</svg>
