<svg width="70" height="64" viewBox="0 0 70 64" fill="none" xmlns="http://www.w3.org/2000/svg">
<ellipse cx="35" cy="33" rx="34" ry="30" fill="#51068A"/>
<path d="M35 2.5C53.9932 2.5 69.5 16.0983 69.5 33C69.5 49.9017 53.9932 63.5 35 63.5C16.0068 63.5 0.5 49.9017 0.5 33C0.5 16.0983 16.0068 2.5 35 2.5Z" stroke="black" stroke-opacity="0.4"/>
<path d="M41 62.5332C39.0523 62.8392 37.0474 63 35 63C33.3013 63 31.6319 62.888 30 62.6758V54.1768H41V62.5332Z" fill="white"/>
<path d="M9 49V52.3291C6.71993 49.9438 4.85455 47.2409 3.5 44.3057V41L9 49Z" fill="white"/>
<path d="M61.9999 48.0002C62.4999 47.0002 66.9999 39.5002 66.9999 40.5002V43.1555C65.8051 46.0861 64.1078 48.804 61.9999 51.2307C61.9999 50.9713 61.9999 50.5799 61.9999 50.0002C61.9999 47.5004 61.5001 48.9998 61.9999 48.0002Z" fill="white"/>
<g filter="url(#filter0_d_6_8532)">
<ellipse cx="35" cy="30" rx="34" ry="30" fill="#51068A"/>
<path d="M27.3418 31.396C27.3418 32.1053 27.1178 32.7027 26.6698 33.188C26.2218 33.6733 25.6011 33.9813 24.8078 34.112V36.17H23.6878V34.154C22.5398 34.098 21.5831 33.6967 20.8178 32.95L21.5738 32.124C22.2458 32.7773 23.0484 33.104 23.9818 33.104C24.5698 33.104 25.0504 32.9593 25.4238 32.67C25.8064 32.3807 25.9978 31.97 25.9978 31.438C25.9978 31.13 25.9371 30.8733 25.8158 30.668C25.7038 30.4627 25.5031 30.2807 25.2138 30.122C24.9244 29.9633 24.5091 29.8 23.9678 29.632C23.0064 29.3333 22.3018 28.9833 21.8538 28.582C21.4151 28.1713 21.1958 27.6207 21.1958 26.93C21.1958 26.2767 21.4244 25.7307 21.8818 25.292C22.3391 24.8533 22.9411 24.592 23.6878 24.508V22.464H24.8078V24.522C25.2558 24.5687 25.6571 24.6807 26.0118 24.858C26.3758 25.026 26.7211 25.264 27.0478 25.572L26.3058 26.384C25.9884 26.0853 25.6571 25.8707 25.3118 25.74C24.9758 25.6093 24.6071 25.544 24.2058 25.544C23.7111 25.544 23.3051 25.6607 22.9878 25.894C22.6798 26.118 22.5258 26.4447 22.5258 26.874C22.5258 27.1447 22.5818 27.3733 22.6938 27.56C22.8058 27.7373 23.0064 27.9053 23.2958 28.064C23.5851 28.2133 24.0098 28.3767 24.5698 28.554C25.1578 28.7313 25.6478 28.9273 26.0398 29.142C26.4318 29.3567 26.7444 29.646 26.9778 30.01C27.2204 30.374 27.3418 30.836 27.3418 31.396ZM33.7853 25.642H30.1313V28.4C30.6073 28.1573 31.1066 28.036 31.6293 28.036C32.4319 28.036 33.0759 28.302 33.5613 28.834C34.0466 29.3567 34.2893 30.08 34.2893 31.004C34.2893 31.62 34.1539 32.1707 33.8833 32.656C33.6126 33.132 33.2299 33.5053 32.7353 33.776C32.2499 34.0373 31.6853 34.168 31.0413 34.168C30.4719 34.168 29.9633 34.07 29.5153 33.874C29.0673 33.6687 28.6519 33.37 28.2693 32.978L29.0253 32.236C29.3239 32.5347 29.6319 32.7587 29.9493 32.908C30.2666 33.048 30.6259 33.118 31.0273 33.118C31.6246 33.118 32.0913 32.9313 32.4273 32.558C32.7726 32.1847 32.9453 31.6573 32.9453 30.976C32.9453 30.2947 32.7913 29.8 32.4833 29.492C32.1753 29.184 31.7599 29.03 31.2373 29.03C30.9946 29.03 30.7706 29.058 30.5653 29.114C30.3599 29.1607 30.1406 29.24 29.9073 29.352H28.8993V24.634H33.9673L33.7853 25.642ZM38.8249 24.494C39.8609 24.494 40.6403 24.9093 41.1629 25.74C41.6949 26.5613 41.9609 27.756 41.9609 29.324C41.9609 30.892 41.6949 32.0913 41.1629 32.922C40.6403 33.7527 39.8609 34.168 38.8249 34.168C37.7889 34.168 37.0049 33.7527 36.4729 32.922C35.9503 32.0913 35.6889 30.892 35.6889 29.324C35.6889 27.756 35.9503 26.5613 36.4729 25.74C37.0049 24.9093 37.7889 24.494 38.8249 24.494ZM38.8249 25.516C38.2183 25.516 37.7656 25.8147 37.4669 26.412C37.1776 27.0093 37.0329 27.98 37.0329 29.324C37.0329 30.668 37.1776 31.6433 37.4669 32.25C37.7656 32.8473 38.2183 33.146 38.8249 33.146C39.4223 33.146 39.8703 32.8473 40.1689 32.25C40.4676 31.6433 40.6169 30.668 40.6169 29.324C40.6169 27.9893 40.4676 27.0233 40.1689 26.426C39.8703 25.8193 39.4223 25.516 38.8249 25.516ZM46.6316 24.494C47.6676 24.494 48.4469 24.9093 48.9696 25.74C49.5016 26.5613 49.7676 27.756 49.7676 29.324C49.7676 30.892 49.5016 32.0913 48.9696 32.922C48.4469 33.7527 47.6676 34.168 46.6316 34.168C45.5956 34.168 44.8116 33.7527 44.2796 32.922C43.7569 32.0913 43.4956 30.892 43.4956 29.324C43.4956 27.756 43.7569 26.5613 44.2796 25.74C44.8116 24.9093 45.5956 24.494 46.6316 24.494ZM46.6316 25.516C46.0249 25.516 45.5723 25.8147 45.2736 26.412C44.9843 27.0093 44.8396 27.98 44.8396 29.324C44.8396 30.668 44.9843 31.6433 45.2736 32.25C45.5723 32.8473 46.0249 33.146 46.6316 33.146C47.2289 33.146 47.6769 32.8473 47.9756 32.25C48.2743 31.6433 48.4236 30.668 48.4236 29.324C48.4236 27.9893 48.2743 27.0233 47.9756 26.426C47.6769 25.8193 47.2289 25.516 46.6316 25.516Z" fill="white"/>
<path d="M41 59.5332C39.0523 59.8392 37.0474 60 35 60C33.3013 60 31.6319 59.888 30 59.6758V51.1768H41V59.5332ZM17.4922 44.7812L8.85645 49.1797C6.62952 46.819 4.80648 44.1519 3.47852 41.2607L12.2617 36.7871L17.4922 44.7812ZM66.9033 40.3896C65.6771 43.3202 63.9477 46.035 61.8066 48.4531L53.0312 43.9824L58.2617 35.9883L66.9033 40.3896ZM37.377 46.7188C37.8107 46.6718 38.2004 46.9814 38.2559 47.4121C37.1962 47.5652 36.1088 47.6465 35 47.6465L34.4834 47.6406C33.5527 47.6198 32.6381 47.5414 31.7432 47.4121C31.7986 46.9813 32.1892 46.6718 32.623 46.7188C33.4016 46.8031 34.1949 46.8467 35 46.8467C35.8051 46.8467 36.5984 46.8031 37.377 46.7188ZM22.6309 43.8672C22.8566 43.5289 23.2981 43.4168 23.6553 43.5967L23.7266 43.6367L24.2217 43.9424C25.2245 44.5406 26.2961 45.0578 27.4238 45.4834L27.9922 45.6885L28.0684 45.7188C28.4315 45.8867 28.6171 46.3031 28.4922 46.6904C26.3508 46.0405 24.3738 45.0792 22.6309 43.8672ZM46.3447 43.5967C46.7018 43.4169 47.1424 43.5293 47.3682 43.8672C45.6251 45.0791 43.6483 46.0406 41.5068 46.6904C41.3737 46.2771 41.5954 45.8306 42.0078 45.6885L42.5762 45.4834C43.8917 44.9869 45.1306 44.3656 46.2734 43.6367L46.3447 43.5967ZM16.3613 36.4092C16.7277 36.237 17.1621 36.3668 17.376 36.7031L17.416 36.7744L17.6875 37.291C18.342 38.4846 19.1535 39.6027 20.0996 40.623C20.3956 40.9424 20.38 41.4375 20.0693 41.7393C18.4982 40.1846 17.234 38.3835 16.3613 36.4092ZM52.584 36.7744C52.7789 36.3862 53.2467 36.2259 53.6377 36.4092C52.7649 38.3835 51.501 40.1846 49.9297 41.7393C49.6195 41.4374 49.6046 40.9422 49.9004 40.623C50.9818 39.4567 51.8876 38.1631 52.584 36.7744ZM15.3379 26.7559C15.7628 26.8343 16.05 27.2377 15.9824 27.667C15.8621 28.4289 15.7998 29.2083 15.7998 30C15.7998 30.7915 15.8622 31.5703 15.9824 32.332C16.0502 32.7614 15.7628 33.1636 15.3379 33.2422C15.1471 32.3357 15.0341 31.4046 15.0068 30.4551L15 30C15 28.892 15.1165 27.8072 15.3379 26.7559ZM54.6611 26.7559C54.8826 27.8073 55 28.892 55 30L54.9932 30.4551C54.9659 31.4047 54.852 32.3356 54.6611 33.2422C54.2368 33.1632 53.9498 32.7611 54.0176 32.332C54.1378 31.5703 54.2002 30.7915 54.2002 30C54.2002 29.4061 54.165 28.8188 54.0967 28.2412L54.0176 27.667L54.0088 27.5859C53.9867 27.1883 54.2636 26.8297 54.6611 26.7559ZM16.9688 16.0176L11.7383 24.0117L3.0957 19.6094C4.32196 16.679 6.05137 13.9639 8.19238 11.5459L16.9688 16.0176ZM20.0693 18.2588C20.3806 18.5604 20.3955 19.0564 20.0996 19.376C19.0182 20.5422 18.1124 21.836 17.416 23.2246C17.221 23.6136 16.7528 23.7733 16.3613 23.5889C17.2342 21.6148 18.4982 19.8132 20.0693 18.2588ZM49.9297 18.2588C51.501 19.8133 52.7648 21.6147 53.6377 23.5889C53.2712 23.761 52.8378 23.6325 52.624 23.2959L52.584 23.2246L52.3125 22.709C51.6579 21.5152 50.8467 20.3965 49.9004 19.376C49.6047 19.0565 49.6189 18.5605 49.9297 18.2588ZM61.1426 10.8193C63.3696 13.1799 65.1924 15.8471 66.5205 18.7383L57.7383 23.2129L52.5078 15.2188L61.1426 10.8193ZM28.4922 13.3076C28.6264 13.7214 28.4051 14.1681 27.9922 14.3105L27.4238 14.5156C26.1084 15.0121 24.8694 15.6335 23.7266 16.3623L23.6553 16.4033C23.2977 16.5833 22.8563 16.4699 22.6309 16.1309C24.3738 14.919 26.351 13.9574 28.4922 13.3076ZM41.5068 13.3076C43.6481 13.9573 45.6252 14.9191 47.3682 16.1309C47.1426 16.4696 46.7021 16.5832 46.3447 16.4033L46.2734 16.3623L45.7783 16.0566C44.7755 15.4584 43.7039 14.9412 42.5762 14.5156L42.0078 14.3105L41.9316 14.2803C41.5683 14.1121 41.3813 13.6951 41.5068 13.3076ZM35 12.3525C36.1087 12.3525 37.1963 12.4329 38.2559 12.5859C38.2011 13.0175 37.8113 13.3273 37.377 13.2803C36.5984 13.1959 35.8051 13.1523 35 13.1523C34.1949 13.1523 33.4016 13.1959 32.623 13.2803C32.1887 13.3273 31.7979 13.0176 31.7432 12.5859C32.8031 12.4328 33.891 12.3525 35 12.3525ZM35 0C36.6987 0 38.3681 0.111028 40 0.323242V8.82324H29V0.46582C30.9477 0.159834 32.9527 0 35 0Z" fill="white"/>
</g>
<defs>
<filter id="filter0_d_6_8532" x="1" y="0" width="68" height="63" filterUnits="userSpaceOnUse" color-interpolation-filters="sRGB">
<feFlood flood-opacity="0" result="BackgroundImageFix"/>
<feColorMatrix in="SourceAlpha" type="matrix" values="0 0 0 0 0 0 0 0 0 0 0 0 0 0 0 0 0 0 127 0" result="hardAlpha"/>
<feOffset dy="3"/>
<feComposite in2="hardAlpha" operator="out"/>
<feColorMatrix type="matrix" values="0 0 0 0 0 0 0 0 0 0 0 0 0 0 0 0 0 0 0.5 0"/>
<feBlend mode="normal" in2="BackgroundImageFix" result="effect1_dropShadow_6_8532"/>
<feBlend mode="normal" in="SourceGraphic" in2="effect1_dropShadow_6_8532" result="shape"/>
</filter>
</defs>
</svg>
